<?xml version="1.0" standalone="no"?>
<!DOCTYPE svg PUBLIC "-//W3C//DTD SVG 20010904//EN"
 "http://www.w3.org/TR/2001/REC-SVG-20010904/DTD/svg10.dtd">
<svg version="1.0" xmlns="http://www.w3.org/2000/svg"
 width="64.000000pt" height="64.000000pt" viewBox="0 0 64.000000 64.000000"
 preserveAspectRatio="xMidYMid meet">

<g transform="translate(0.000000,64.000000) scale(0.100000,-0.100000)"
fill="#000000" stroke="none">
<path d="M272 588 c-6 -6 -12 -22 -12 -35 0 -26 -44 -43 -63 -24 -18 18 -52
13 -75 -12 -24 -25 -28 -57 -11 -74 19 -19 2 -63 -24 -63 -33 0 -47 -18 -47
-60 0 -42 14 -60 47 -60 26 0 43 -44 24 -63 -18 -18 -13 -52 12 -75 25 -24 57
-28 74 -11 20 20 63 2 63 -25 0 -33 22 -48 66 -44 42 3 66 30 46 50 -9 9 -15
9 -24 0 -21 -21 -43 -13 -53 19 -7 23 -20 36 -48 47 -35 13 -39 13 -58 -4 -18
-16 -21 -17 -36 -1 -16 15 -15 18 1 36 16 18 17 24 6 53 -19 47 -29 58 -56 58
-37 0 -31 34 7 45 23 7 36 20 47 48 13 35 13 39 -4 58 -16 18 -17 21 -1 36 15
16 18 15 36 -1 19 -17 23 -17 58 -4 28 11 41 24 47 46 6 17 18 33 29 36 10 2
17 11 15 18 -6 18 -50 22 -66 6z"/>
<path d="M381 572 c-51 -51 -53 -125 -6 -176 24 -26 25 -32 25 -170 0 -136 1
-143 23 -164 30 -28 68 -28 95 1 20 22 22 33 22 165 0 136 1 142 25 168 47 51
45 125 -6 176 -39 40 -53 32 -57 -29 -2 -33 -8 -53 -17 -57 -31 -11 -44 5 -47
57 -4 61 -18 69 -57 29z m55 -119 c32 -16 37 -16 69 0 29 14 35 22 35 49 0 25
3 29 10 18 19 -29 11 -71 -20 -101 l-29 -30 -3 -152 -3 -152 -25 0 -25 0 -3
152 -3 152 -29 30 c-30 29 -37 62 -22 98 5 14 8 11 10 -15 3 -26 10 -36 38
-49z"/>
<path d="M252 440 c-94 -58 -94 -183 0 -240 53 -32 139 -23 125 13 -4 12 -15
14 -40 10 -59 -9 -117 39 -117 97 0 36 24 72 63 91 37 20 45 41 16 47 -8 1
-29 -7 -47 -18z"/>
</g>
</svg>
